<svg version="1.1" id="Layer_1" xmlns="http://www.w3.org/2000/svg" xmlns:xlink="http://www.w3.org/1999/xlink" x="0px" y="0px"
	 width="100%" viewBox="0 0 496 496" enable-background="new 0 0 496 496" xml:space="preserve">
<path fill="#F8F4E1" opacity="1.000000" stroke="none" 
	d="
M321.691345,137.535858 
	C328.234680,137.027115 332.451477,141.823975 331.193115,147.797119 
	C330.475311,151.204361 334.991516,159.197540 338.785797,160.864578 
	C341.210510,161.929871 343.794647,162.631439 346.305115,163.502518 
	C350.761993,165.048950 353.870087,167.944016 354.213226,172.785782 
	C354.423157,175.748123 355.993073,176.759232 358.416351,177.494812 
	C369.281311,180.792801 370.184631,182.019867 370.400299,193.031921 
	C370.482056,197.205109 373.361084,200.001205 375.635590,203.014404 
	C380.287018,209.176407 384.488190,215.564362 386.182251,223.219406 
	C389.681366,239.030807 382.123627,257.201385 367.757141,266.430450 
	C363.909302,268.902313 363.118866,270.857269 365.696411,274.536987 
	C367.138672,276.595978 368.051270,278.968842 366.321716,281.504425 
	C364.431274,284.275970 365.860565,285.933685 368.499023,286.732239 
	C371.191895,287.547272 374.024719,287.891968 376.734711,288.659851 
	C388.045715,291.864960 391.483612,300.973297 388.006348,312.015045 
	C385.241211,320.795380 382.058685,329.623688 380.508087,338.741760 
	C378.786407,348.865723 383.765625,355.532135 393.846436,358.357849 
	C395.368683,358.784546 398.308929,358.097107 397.797394,360.892334 
	C397.359863,363.283112 394.750031,362.333099 393.097046,362.295776 
	C383.854523,362.087219 376.395569,353.978027 375.660309,343.709900 
	C375.258545,338.098877 376.307861,332.802032 378.382233,327.629547 
	C379.296234,325.350555 380.020966,322.995667 380.875000,320.551086 
	C378.543518,319.293945 376.668060,320.583191 374.791534,320.596100 
	C370.856598,320.623138 367.542450,319.369812 367.053406,315.190399 
	C366.590271,311.232483 369.442200,309.477753 373.082642,308.546295 
	C376.763550,307.604462 379.949921,309.010712 383.235046,309.988251 
	C386.469360,305.706177 386.306427,301.294678 382.771973,297.515900 
	C380.908752,295.523895 378.609161,293.652252 375.989685,293.553528 
	C364.970764,293.138031 360.131287,284.172882 353.013153,278.047211 
	C341.229095,267.906189 333.919739,254.269562 323.819855,242.859344 
	C321.752197,240.523453 319.559906,239.930649 316.722900,240.772736 
	C305.222626,244.186295 295.829224,240.684891 287.977905,232.032486 
	C285.852661,229.690369 283.511230,227.542480 281.417084,225.174500 
	C278.323822,221.676727 275.818726,217.014984 269.866089,220.382141 
	C269.386017,220.653702 268.328430,220.588440 267.942108,220.236877 
	C263.567688,216.256271 260.498077,219.704208 257.173248,221.990753 
	C250.725067,226.425339 244.237122,230.802063 237.783264,235.228470 
	C236.340546,236.217972 234.434387,236.798813 234.891663,239.312805 
	C236.056717,245.717911 232.399048,250.234772 228.224335,254.105515 
	C216.954941,264.554291 213.582687,263.893799 205.497101,250.773804 
	C203.177750,247.010345 201.807266,243.633667 206.072525,239.955551 
	C200.703461,243.265808 197.432068,240.875854 194.373764,236.901794 
	C185.303909,225.116135 185.726547,222.649872 198.515778,214.737350 
	C203.356003,211.742767 208.279694,209.526596 213.930389,212.681885 
	C215.693069,213.666138 217.105896,212.821045 218.523804,211.842972 
	C227.982681,205.318359 237.459183,198.819260 246.903229,192.273285 
	C248.083221,191.455383 249.558884,190.733063 248.994858,188.753433 
	C247.790680,184.526901 250.696320,182.231079 253.418564,180.048538 
	C255.544220,178.344299 256.797272,176.289536 258.138428,173.905472 
	C267.966614,156.434616 280.595276,142.059219 301.277069,137.291580 
	C306.098022,136.180222 310.889618,136.526489 315.583496,137.884674 
	C317.595886,138.466949 319.449799,138.794235 321.691345,137.535858 
M374.121765,210.368195 
	C373.574829,209.531235 373.018829,208.700058 372.482452,207.856384 
	C368.947632,202.295715 364.451660,197.187332 366.423096,189.614273 
	C367.075836,187.106827 364.964600,184.834229 362.559509,183.733490 
	C360.308838,182.703415 357.883118,181.984711 355.468628,181.401215 
	C352.325012,180.641479 350.087158,178.688828 350.050323,175.656754 
	C349.973816,169.357895 345.996094,167.442963 340.919006,166.305206 
	C335.052124,164.990479 330.808868,161.730240 327.940155,156.316162 
	C320.138580,141.592361 305.738312,137.659821 291.098022,145.765106 
	C281.794739,150.915649 275.548462,159.034058 268.661774,166.773209 
	C261.307739,175.037506 261.176544,183.013641 265.637787,192.407425 
	C272.127197,206.071945 282.072083,216.923874 292.388580,227.651352 
	C298.836670,234.356369 305.787140,237.619827 315.163361,235.029190 
	C320.788116,233.475067 325.527405,235.166077 329.008911,240.313995 
	C333.300018,246.658997 338.081207,252.670654 342.443939,258.969513 
	C349.823700,269.624359 349.767303,269.694092 361.367706,263.595825 
	C366.238647,261.035156 370.542725,257.816315 373.291809,253.330673 
	C372.355469,251.239929 369.745850,251.414886 370.036011,248.987701 
	C371.437988,245.908401 376.239716,249.943085 377.278961,245.870743 
	C376.396088,243.365784 371.908630,245.074799 372.168732,241.371964 
	C379.628204,239.519638 379.628204,239.519638 379.554840,236.912582 
	C377.842987,235.450577 373.714539,237.726776 373.747040,233.318527 
	C381.626434,231.712387 381.806274,231.333344 379.993591,223.787689 
	C378.888458,219.187408 376.917297,215.003815 374.121765,210.368195 
M259.533630,214.064117 
	C260.342407,210.203720 260.267151,206.204834 263.762177,203.112061 
	C265.326111,201.728134 261.854614,197.194626 259.405731,197.551636 
	C257.550354,197.822098 255.702011,198.443069 254.252060,196.943954 
	C252.161835,194.782883 250.466827,195.881516 248.592667,197.192642 
	C241.651779,202.048294 234.803833,207.053787 227.672150,211.613846 
	C222.816620,214.718506 217.929016,217.332336 219.083817,224.442352 
	C219.283920,225.674377 218.075531,227.181549 217.398132,228.500198 
	C215.921921,231.373810 213.314133,233.398239 211.383102,235.954849 
	C216.632507,232.828064 221.727051,229.078262 228.074341,232.149826 
	C230.886688,233.510803 232.656677,232.756821 234.818863,231.240829 
	C242.842575,225.615051 250.932999,220.084412 259.533630,214.064117 
M210.735519,229.196915 
	C212.227554,227.196930 214.317902,225.416840 213.444138,221.960724 
	C207.990326,225.741837 202.933258,229.247894 197.967148,232.690872 
	C199.466949,236.419296 201.358017,237.142487 204.137039,234.735138 
	C206.129517,233.009109 208.203796,231.377533 210.735519,229.196915 
M215.658371,250.989441 
	C214.363510,251.794876 212.876129,252.567276 214.238312,254.416626 
	C215.023071,255.482040 215.859207,256.430328 217.529282,255.978439 
	C221.565979,254.886215 228.484390,246.815033 229.133530,241.849686 
	C224.650116,244.890656 220.433975,247.750351 215.658371,250.989441 
M219.844101,237.366074 
	C209.440720,242.900146 208.279785,244.187469 210.637543,248.265778 
	C215.845078,244.784424 221.018387,241.325974 226.787247,237.469376 
	C223.934097,236.048721 222.226730,236.267761 219.844101,237.366074 
M199.003677,220.493607 
	C197.417404,221.665375 195.779343,222.774597 194.262894,224.030655 
	C193.233856,224.883026 193.198990,226.028580 193.975235,227.126816 
	C194.920120,228.463638 195.982559,227.867004 196.968933,227.207184 
	C201.583145,224.120544 206.180679,221.008987 211.279785,217.572311 
	C206.091858,214.899582 203.084335,218.463501 199.003677,220.493607 
M378.409058,312.441986 
	C377.270874,312.309845 376.114563,311.985077 374.998657,312.090027 
	C373.250977,312.254333 370.698486,312.366425 371.211884,314.806793 
	C371.792755,317.568115 374.566711,317.146881 376.562073,316.558197 
	C378.127472,316.096313 381.593170,316.155334 378.409058,312.441986 
z"/>
<path fill="#F8F4E1" opacity="1.000000" stroke="none" 
	d="
M245.910004,300.315308 
	C249.550842,299.257599 252.826584,299.312073 254.808456,302.375549 
	C256.822479,305.488739 255.191971,308.561066 253.267960,311.148010 
	C251.188156,313.944427 248.864532,316.580078 246.457275,319.104736 
	C244.982651,320.651215 244.086975,322.203369 244.236893,324.398895 
	C244.519257,328.533905 246.634323,329.796265 250.182892,327.573273 
	C254.668381,324.763367 257.655701,320.533203 260.399811,316.106812 
	C261.289124,314.672333 261.657837,312.461060 264.112488,312.834625 
	C265.235168,313.641602 265.039612,314.601654 264.576355,315.547974 
	C261.909454,320.996033 258.625671,325.967865 253.552322,329.513214 
	C246.384338,334.522369 241.199570,332.967499 237.911484,324.843048 
	C237.682419,324.277039 237.458176,323.709045 237.188156,323.033020 
	C224.017166,336.422028 218.882660,336.896515 212.189896,325.089447 
	C209.462875,329.062256 207.688248,333.892242 202.486099,335.067169 
	C198.438065,335.981445 195.012665,333.410461 192.125259,327.361023 
	C189.070358,331.347961 187.278458,337.566437 181.043427,336.648376 
	C173.294052,335.507294 174.514709,327.711884 172.200958,322.097260 
	C169.645142,325.063782 167.392776,327.930389 164.325058,329.925110 
	C157.225677,334.541260 150.912140,332.348663 149.165527,324.178375 
	C147.787018,317.729980 148.207748,311.226471 151.731720,305.310486 
	C153.410995,302.491333 155.632004,300.274292 159.043716,299.789551 
	C161.836182,299.392822 164.380112,299.988281 166.168961,302.405182 
	C167.850128,304.676636 166.879440,306.863525 165.778702,308.964783 
	C163.745056,312.846924 160.958557,316.155365 157.708206,319.066895 
	C156.134369,320.476715 155.173492,322.033020 155.305969,324.268585 
	C155.550735,328.398743 157.827164,329.966309 161.190994,327.580841 
	C167.715851,322.953705 172.916611,317.258545 173.698639,308.671814 
	C174.366776,301.335541 175.928253,294.207886 179.481934,287.647308 
	C180.773453,285.263062 182.369812,283.158844 184.855408,281.896210 
	C190.096756,279.233765 195.105301,282.242218 195.318893,288.144318 
	C195.481964,292.650909 193.843689,296.700928 191.760559,300.477936 
	C188.949951,305.573975 186.112244,310.756836 182.509048,315.283905 
	C179.236298,319.395782 179.044586,323.721527 179.336624,328.418793 
	C179.445679,330.172821 179.904495,331.879028 181.711746,332.455505 
	C183.608948,333.060699 184.848068,331.678589 185.822815,330.289215 
	C188.715240,326.166321 190.753082,321.604492 192.420212,316.877136 
	C192.971725,315.313202 193.149460,313.606415 193.787689,312.086578 
	C194.855331,309.544250 194.426865,305.023315 198.605316,305.762939 
	C203.102493,306.558990 200.758408,310.404266 200.483932,313.154327 
	C200.087646,317.124634 199.627243,321.092407 199.385468,325.072845 
	C199.245880,327.370819 199.238464,329.782104 201.629456,331.307281 
	C204.706879,330.813690 205.886597,328.303101 207.233765,326.054169 
	C210.173187,321.147217 211.658081,315.693726 213.248779,310.246307 
	C215.641693,302.051697 220.801025,298.320557 227.160767,299.651672 
	C231.345596,300.527588 232.703583,303.582397 232.963654,307.307800 
	C233.050858,308.557007 232.603638,310.127899 230.917786,310.301178 
	C229.086823,310.489319 228.827072,309.117981 228.711945,307.674744 
	C228.574432,305.950775 229.240219,303.620361 226.587570,303.322449 
	C224.137802,303.047302 223.141922,305.095032 222.356796,306.934875 
	C219.897552,312.698029 218.793060,318.758026 219.507004,324.979614 
	C220.070847,329.893066 222.804703,331.120483 226.705170,328.166290 
	C232.098892,324.081207 236.404099,319.143829 237.851578,312.146057 
	C238.846893,307.334259 240.711624,302.872131 245.910004,300.315308 
M183.095901,308.370209 
	C186.362839,301.103210 192.069183,294.635742 191.382217,285.426086 
	C185.304031,287.884644 179.418076,303.585480 181.007217,311.541840 
	C181.666031,310.560303 182.210541,309.749084 183.095901,308.370209 
M158.686935,306.388794 
	C157.489227,308.978180 155.990753,311.507050 156.659073,315.405609 
	C159.803802,311.500671 163.165222,308.773834 163.320328,304.205811 
	C160.787247,303.227203 160.021591,304.691650 158.686935,306.388794 
M245.079987,314.086151 
	C245.058411,314.556427 245.036835,315.026703 245.015274,315.497009 
	C245.171783,315.464996 245.405746,315.488220 245.473602,315.393036 
	C247.967484,311.894104 252.311676,309.240509 251.320618,303.145355 
	C246.648026,305.783142 245.907822,309.637604 245.079987,314.086151 
z"/>
<path fill="#F8F4E1" opacity="1.000000" stroke="none" 
	d="
M103.999611,311.823700 
	C102.825027,314.577301 102.356018,314.784149 100.298355,312.943848 
	C96.471008,309.520813 95.014374,304.923309 94.764572,299.984406 
	C94.247444,289.760559 100.482086,279.981354 109.174583,277.062317 
	C119.883018,273.466278 132.834213,277.673340 138.909500,286.721375 
	C147.514389,299.536804 146.372726,320.408478 136.359161,332.080261 
	C132.143127,336.994415 126.731560,339.107208 120.306114,338.140869 
	C117.545044,337.725616 115.185059,336.366638 114.615051,333.315338 
	C114.241814,331.317413 114.237534,329.253113 116.729645,328.723755 
	C117.785042,328.836273 118.042183,329.432709 118.218353,330.097687 
	C119.724503,335.782715 123.577011,337.007294 127.991516,332.995270 
	C132.242386,329.131958 133.942612,323.890747 135.152161,318.459747 
	C136.955811,310.361298 136.922287,302.280670 134.463226,294.347046 
	C132.116653,286.776276 127.890877,280.702484 119.404236,279.440796 
	C112.575493,278.425537 106.805603,280.808319 103.145409,286.835663 
	C98.587814,294.340729 97.870911,302.121124 102.623398,309.924103 
	C102.968254,310.490326 103.413994,310.995087 103.999611,311.823700 
z"/>
<path fill="#F8F4E1" opacity="1.000000" stroke="none" 
	d="
M112.175217,324.910950 
	C112.027428,327.198822 112.007591,329.037872 111.724663,330.835571 
	C111.445496,332.609375 111.222054,334.853668 108.739220,334.677551 
	C106.220428,334.498840 105.735283,332.381653 105.742836,330.260864 
	C105.758209,325.942230 105.536690,321.592346 105.971642,317.312103 
	C106.842026,308.746887 106.605003,300.081573 108.413246,291.596985 
	C109.128395,288.241425 110.419785,285.738037 114.326675,286.687927 
	C118.360291,287.668579 117.328773,290.677307 116.679024,293.515320 
	C114.347130,303.700867 112.379723,313.945190 112.175217,324.910950 
z"/>
<path fill="#F8F4E1" opacity="1.000000" stroke="none" 
	d="
M204.683990,298.452179 
	C202.938431,301.144775 201.003052,303.287506 198.089569,301.207855 
	C195.746552,299.535431 196.598389,297.071472 197.918777,294.983215 
	C198.862457,293.490692 200.271118,292.439575 202.084930,293.032745 
	C204.451569,293.806671 205.410980,295.598663 204.683990,298.452179 
z"/>
<path fill="#F8F4E1" opacity="1.000000" stroke="none" 
	d="
M338.834961,178.177338 
	C344.944183,185.006271 351.040588,191.393311 355.936676,198.762329 
	C361.278839,206.802750 360.876648,212.601212 353.753143,219.110062 
	C340.994568,230.767715 343.385254,229.614777 333.247986,218.606277 
	C319.383698,203.550446 307.113068,187.156631 294.347168,171.184738 
	C292.140320,168.423691 289.311157,165.553436 291.477448,161.362183 
	C293.905640,156.664230 297.959351,154.172546 303.009979,153.761078 
	C309.881439,153.201294 315.578003,156.515198 320.782990,160.502579 
	C327.406464,165.576614 332.839600,171.924484 338.834961,178.177338 
M338.485962,216.057648 
	C340.244110,217.649109 340.957520,220.842896 344.040222,220.423126 
	C351.735077,219.375290 356.246704,208.930801 351.685150,202.850021 
	C345.094147,194.063858 338.377777,185.367950 330.977966,177.240784 
	C325.481628,171.204178 319.677155,165.491623 312.534973,161.326706 
	C308.733154,159.109695 304.688568,158.458817 300.519684,159.593491 
	C296.254944,160.754272 295.282745,163.724197 298.089386,166.954285 
	C311.841827,182.781509 323.797150,200.082321 338.485962,216.057648 
z"/>
</svg>